<?xml version="1.0" standalone="no"?>
<!DOCTYPE svg PUBLIC "-//W3C//DTD SVG 20010904//EN"
 "http://www.w3.org/TR/2001/REC-SVG-20010904/DTD/svg10.dtd">
<svg version="1.0" xmlns="http://www.w3.org/2000/svg"
 width="512.000000pt" height="512.000000pt" viewBox="0 0 512.000000 512.000000"
 preserveAspectRatio="xMidYMid meet">
<metadata>
Created by potrace 1.11, written by Peter Selinger 2001-2013
</metadata>
<g transform="translate(0.000000,512.000000) scale(0.100000,-0.100000)"
fill="#000000" stroke="none">
<path d="M2378 5115 c-2 -1 -39 -5 -82 -9 -44 -4 -82 -9 -85 -11 -4 -2 -34 -7
-66 -10 -109 -13 -458 -107 -500 -134 -5 -4 -28 -13 -50 -20 -63 -21 -281
-132 -380 -193 -378 -235 -690 -565 -904 -956 -33 -62 -61 -115 -61 -117 0 -2
-15 -36 -34 -77 -55 -121 -134 -358 -150 -451 -3 -15 -7 -35 -10 -45 -3 -9 -7
-34 -11 -56 -3 -21 -7 -41 -9 -45 -4 -6 -12 -68 -26 -201 -8 -81 -5 -463 5
-520 3 -19 12 -75 20 -125 29 -174 78 -357 142 -520 37 -93 123 -273 161 -335
12 -19 29 -48 38 -65 19 -35 138 -207 156 -227 7 -7 29 -34 48 -58 44 -58 105
-124 205 -223 385 -382 920 -636 1475 -701 149 -17 476 -17 610 0 709 94 1317
446 1740 1009 268 357 440 784 495 1232 18 143 12 542 -9 673 -121 741 -500
1341 -1108 1754 -54 36 -101 66 -105 66 -3 0 -14 6 -22 14 -20 18 -257 137
-331 166 -189 76 -440 143 -610 165 -25 3 -61 8 -80 11 -37 6 -456 14 -462 9z"/>
</g>
</svg>
